<svg xmlns="http://www.w3.org/2000/svg" width="800" height="800" viewBox="0 0 211.667 211.667"><defs><clipPath id="a" clipPathUnits="userSpaceOnUse"><path d="M-2850.363 3140.66h5000v-3750h-5000Z"/></clipPath><clipPath id="b" clipPathUnits="userSpaceOnUse"><path d="M-3022.444 3095.818h5000v-3750h-5000Z"/></clipPath><clipPath id="c" clipPathUnits="userSpaceOnUse"><path d="M-3062.998 3089.444h5000v-3750h-5000Z"/></clipPath><clipPath id="d" clipPathUnits="userSpaceOnUse"><path d="M-3258.524 2779.499h5000v-3750h-5000Z"/></clipPath><clipPath id="e" clipPathUnits="userSpaceOnUse"><path d="M-3238.991 2738.675h5000v-3750h-5000Z"/></clipPath><clipPath id="f" clipPathUnits="userSpaceOnUse"><path d="M-2868.034 3026.558h5000v-3750h-5000Z"/></clipPath></defs><path d="M0 0h449.944c20.705 0 20.705-45.814 0-45.814H0C-20.692-45.814-20.692 0 0 0" clip-path="url(#a)" style="fill:#855231 icc-color(sRGB-IEC61966-2,.1,.52198792,.32199097,.19198608);fill-opacity:1;fill-rule:evenodd;stroke:none" transform="matrix(.35278 0 0 -.35278 34.949 176.69)"/><path d="m0 0 36.546 79.924L4.78 82.853-22.286-4.733l45.404-40.109h27.617z" clip-path="url(#b)" style="fill:#4d4949 icc-color(sRGB-IEC61966-2,.1,.30198669,.28599548,.28599548);fill-opacity:1;fill-rule:nonzero;stroke:none" transform="matrix(.35278 0 0 -.35278 95.655 160.871)"/><path d="m0 0 36.546 79.9-16.639 7.64-15.115-4.686-27.067-87.587 52.611-46.483h27.617z" clip-path="url(#c)" style="fill:#4d4949 icc-color(sRGB-IEC61966-2,.1,.30198669,.28599548,.28599548);fill-opacity:1;fill-rule:nonzero;stroke:none" transform="matrix(.35278 0 0 -.35278 109.962 158.622)"/><path d="M0 0s31.694 29.259 89.695 54.264C55.797 65.547 6.421 48.769 6.421 48.769s-39.944 49.258-103.159-2.486c-32.75-26.808-54.345-69.752-68.324-75.037-71.252-26.938-147.064-66.894-308.363-189.233l28.671-10.43-17.411-33.559 71.675 14.917-119.739-79.947h73.326l135.066 63.777s107.893-24.547 215.024 55.951c60.098 45.146 58.434 128.011 58.434 144.17C-28.379-57.285-19.626-12.725 0 0" clip-path="url(#d)" style="fill:#4d4949 icc-color(sRGB-IEC61966-2,.1,.30198669,.28599548,.28599548);fill-opacity:1;fill-rule:nonzero;stroke:none" transform="matrix(.35278 0 0 -.35278 178.94 49.28)"/><path d="M0 0s3.398-9.151-1.43-12.175c-10.615-6.643-25.801 5.566-25.801 5.566z" clip-path="url(#e)" style="fill:#ff860d icc-color(sRGB-IEC61966-2,.1,1,.5249939,.05099487);fill-opacity:1;fill-rule:nonzero;stroke:none" transform="matrix(.35278 0 0 -.35278 172.048 34.879)"/><path d="M0 0s194.706 35.715 245.617 111.115c0 0-31.121-98.448-281.379-135.018z" clip-path="url(#f)" style="fill:#404040 icc-color(sRGB-IEC61966-2,.1,.25099182,.25099182,.25099182);fill-opacity:1;fill-rule:nonzero;stroke:none" transform="matrix(.35278 0 0 -.35278 41.183 136.437)"/></svg>